<svg width="24" height="24" viewBox="0 0 24 24" fill="none" xmlns="http://www.w3.org/2000/svg">
<path d="M16.1251 6.75007C15.7369 6.74985 15.3494 6.7812 14.9663 6.84382C14.8301 5.43603 14.2546 4.10672 13.3214 3.04393C12.3882 1.98115 11.1444 1.23871 9.76602 0.92163C9.64223 0.893191 9.51325 0.896655 9.39116 0.931699C9.26908 0.966742 9.15789 1.03222 9.06804 1.12198C8.97818 1.21175 8.91259 1.32286 8.87742 1.44491C8.84225 1.56696 8.83865 1.69594 8.86696 1.81975C9.04361 2.58932 9.04456 3.38879 8.86975 4.15877C8.69494 4.92875 8.34885 5.64944 7.85721 6.26727C7.36558 6.88511 6.74102 7.38421 6.02997 7.72748C5.31892 8.07075 4.53966 8.24937 3.75008 8.25007C3.35289 8.25013 2.95696 8.20547 2.56977 8.11694C2.44588 8.08844 2.31679 8.0919 2.19461 8.12698C2.07243 8.16207 1.96117 8.22763 1.87128 8.31752C1.78139 8.40741 1.71583 8.51866 1.68074 8.64085C1.64566 8.76303 1.6422 8.89212 1.67071 9.016C1.87219 9.88482 2.24334 10.7053 2.76284 11.4302C3.28234 12.1552 3.93995 12.7703 4.69789 13.2404C4.16483 13.9666 3.84342 14.8263 3.76932 15.7241C3.69523 16.6219 3.87135 17.5227 4.27814 18.3264C4.68493 19.1302 5.30648 19.8056 6.07381 20.2775C6.84114 20.7495 7.72423 20.9996 8.62508 21.0001H16.1251C18.0147 21.0001 19.827 20.2494 21.1632 18.9132C22.4994 17.577 23.2501 15.7647 23.2501 13.8751C23.2501 11.9854 22.4994 10.1731 21.1632 8.83693C19.827 7.50074 18.0147 6.75007 16.1251 6.75007ZM3.50352 9.75007C3.58508 9.75007 3.66758 9.75007 3.75008 9.75007C5.53968 9.74808 7.25542 9.03629 8.52086 7.77085C9.7863 6.5054 10.4981 4.78967 10.5001 3.00007C10.5001 2.91663 10.5001 2.83319 10.5001 2.74975C11.3643 3.15436 12.1011 3.78831 12.63 4.58257C13.159 5.37684 13.4599 6.301 13.5001 7.25444C12.5844 7.6188 11.7537 8.16822 11.06 8.86832C10.3664 9.56842 9.8247 10.4041 9.46883 11.3232C9.19021 11.2746 8.90791 11.2501 8.62508 11.2501C7.61688 11.2499 6.63373 11.5642 5.81258 12.1491C4.80387 11.62 3.99374 10.7783 3.50352 9.75007Z" fill="#090D1F"/>
</svg>
